<?xml version="1.0" encoding="UTF-8" standalone="no"?>
<!DOCTYPE svg PUBLIC "-//W3C//DTD SVG 1.1//EN" "http://www.w3.org/Graphics/SVG/1.1/DTD/svg11.dtd">
<svg width="100%" height="100%" viewBox="0 0 32 32" version="1.1" xmlns="http://www.w3.org/2000/svg" xmlns:xlink="http://www.w3.org/1999/xlink" xml:space="preserve" xmlns:serif="http://www.serif.com/" style="fill-rule:evenodd;clip-rule:evenodd;stroke-linecap:square;stroke-miterlimit:2;">
    <g transform="matrix(1,0,0,1,0,-2)">
        <g id="Analysis_24" transform="matrix(1,0,0,1,0,2)">
            <rect x="0" y="0" width="32" height="32" style="fill:none;"/>
            <g transform="matrix(2.2,0,0,2.2,-6,-36.8)">
                <rect x="5" y="19" width="10" height="10" style="fill:rgb(237,166,166);"/>
            </g>
            <g transform="matrix(1,0,0,1,0,-2)">
                <rect x="5" y="19" width="10" height="10" style="fill:rgb(235,235,235);"/>
            </g>
            <g transform="matrix(1.05,0,0,1.05,-0.75,-2.95)">
                <path d="M5,19L5,29L15,29" style="fill:none;stroke:rgb(92,92,92);stroke-width:0.95px;"/>
            </g>
            <g transform="matrix(1,0,0,1,0,-2)">
                <path d="M27.5,6.5L4.5,6.5L4.5,18.5L15.5,18.5C15.5,18.5 15.5,29.5 15.5,29.5L27.5,29.5L27.5,6.5Z" style="fill:none;stroke:rgb(239,21,21);stroke-width:1px;stroke-miterlimit:1.5;"/>
            </g>
            <g transform="matrix(1,0,0,1,0,-2)">
                <path d="M15.5,18.5L27,29" style="fill:none;stroke:rgb(239,21,21);stroke-width:1px;stroke-linecap:butt;stroke-miterlimit:1.5;"/>
            </g>
        </g>
    </g>
</svg>
