<?xml version="1.0" encoding="UTF-8" standalone="no"?>
<!DOCTYPE svg PUBLIC "-//W3C//DTD SVG 1.1//EN" "http://www.w3.org/Graphics/SVG/1.1/DTD/svg11.dtd">
<svg width="100%" height="100%" viewBox="0 0 24 24" version="1.1" xmlns="http://www.w3.org/2000/svg" xmlns:xlink="http://www.w3.org/1999/xlink" xml:space="preserve" xmlns:serif="http://www.serif.com/" style="fill-rule:evenodd;clip-rule:evenodd;stroke-miterlimit:1.5;">
    <g transform="matrix(1,0,0,1,-36,-110)">
        <g id="BuildEnds_16" transform="matrix(0.75,0,0,0.75,36,110)">
            <rect x="0" y="0" width="32" height="32" style="fill:none;"/>
            <g transform="matrix(0.748328,0,0,0.833654,2.47304,1.99487)">
                <rect x="5.604" y="5.604" width="7.127" height="20.792" style="fill:rgb(235,235,235);"/>
            </g>
            <g transform="matrix(0.878156,0,0,0.897781,2.15353,1.6355)">
                <rect x="12.731" y="5.604" width="13.665" height="20.792" style="fill:rgb(145,197,255);"/>
            </g>
            <g transform="matrix(0.753935,0,0,0.897781,2.44162,1.41298)">
                <path d="M12.678,12.535L5.604,12.535" style="fill:none;stroke:rgb(92,92,92);stroke-width:1.61px;"/>
            </g>
            <g transform="matrix(0.897781,0,0,0.897781,1.6355,1.6355)">
                <path d="M17.485,13.03L24.911,5.604" style="fill:none;stroke:rgb(25,133,255);stroke-width:1.5px;"/>
            </g>
            <g transform="matrix(0.897781,0,0,0.897781,1.6355,1.6355)">
                <path d="M17.485,17.485L24.911,24.911" style="fill:none;stroke:rgb(25,133,255);stroke-width:1.5px;"/>
            </g>
            <g transform="matrix(0.748328,0,0,0.897781,2.47304,0.524689)">
                <path d="M5.604,19.465L12.731,19.465" style="fill:none;stroke:rgb(92,92,92);stroke-width:1.63px;"/>
            </g>
            <g transform="matrix(0.897781,0,0,0.897781,0.968834,0.968834)">
                <rect x="5.604" y="5.604" width="20.792" height="20.792" style="fill:none;stroke:rgb(92,92,92);stroke-width:1.49px;stroke-linecap:round;"/>
            </g>
            <g transform="matrix(0.9758,0,0,0.961908,-0.422912,-0.0572015)">
                <path d="M26.395,5.604L12.731,5.604L12.731,26.396L26.395,26.396L26.395,5.604ZM25.015,7.004L25.015,24.996C25.015,24.996 14.111,24.996 14.111,24.996C14.111,24.996 14.111,7.004 14.111,7.004L25.015,7.004Z" style="fill:rgb(25,133,255);"/>
            </g>
            <g transform="matrix(0.78064,0,0,0.76949,2.72834,3.02111)">
                <rect x="12.731" y="12.535" width="6.832" height="6.931" style="fill:none;stroke:rgb(25,133,255);stroke-width:1.74px;"/>
            </g>
        </g>
    </g>
</svg>
