<?xml version="1.0" encoding="UTF-8" standalone="no"?>
<svg
   xmlns:dc="http://purl.org/dc/elements/1.1/"
   xmlns:cc="http://creativecommons.org/ns#"
   xmlns:rdf="http://www.w3.org/1999/02/22-rdf-syntax-ns#"
   xmlns:svg="http://www.w3.org/2000/svg"
   xmlns="http://www.w3.org/2000/svg"
   xmlns:sodipodi="http://sodipodi.sourceforge.net/DTD/sodipodi-0.dtd"
   xmlns:inkscape="http://www.inkscape.org/namespaces/inkscape"
   inkscape:version="1.0 (4035a4fb49, 2020-05-01)"
   sodipodi:docname="FlipEdge_24.svg"
   id="svg2534"
   style="fill-rule:evenodd;clip-rule:evenodd;stroke-miterlimit:10;"
   xml:space="preserve"
   version="1.1"
   viewBox="0 0 32 32"
   height="100%"
   width="100%"><metadata
   id="metadata2540"><rdf:RDF><cc:Work
       rdf:about=""><dc:format>image/svg+xml</dc:format><dc:type
         rdf:resource="http://purl.org/dc/dcmitype/StillImage" /><dc:title></dc:title></cc:Work></rdf:RDF></metadata><defs
   id="defs2538">
        
    
            
            
            
            
        
                
            </defs><sodipodi:namedview
   inkscape:current-layer="svg2534"
   inkscape:window-maximized="1"
   inkscape:window-y="-8"
   inkscape:window-x="-8"
   inkscape:cy="16"
   inkscape:cx="16"
   inkscape:zoom="30.3125"
   showgrid="true"
   id="namedview2536"
   inkscape:window-height="1137"
   inkscape:window-width="1920"
   inkscape:pageshadow="2"
   inkscape:pageopacity="0"
   guidetolerance="10"
   gridtolerance="10"
   objecttolerance="10"
   borderopacity="1"
   bordercolor="#666666"
   pagecolor="#ffffff"><inkscape:grid
     id="grid3103"
     type="xygrid" /></sodipodi:namedview>
    <g
   style="stroke-width:1.04762"
   id="g2517"
   transform="matrix(0.24,0,0,0.24,-0.50007061,-0.50007061)">
                <rect
   id="rect2515"
   style="fill:#ebebeb;stroke-width:1.04762"
   height="87.5"
   width="87.5"
   y="22.917"
   x="22.917" />
            </g><g
   style="stroke-width:0.928113;stroke-miterlimit:4;stroke-dasharray:none"
   id="g2521"
   transform="matrix(0.02628721,-1.0777755,1.0777755,-0.02628721,-278.8447,246.75541)">
                <path
   id="path2519"
   style="fill:#5c5c5c;stroke-width:0.928113;stroke-miterlimit:4;stroke-dasharray:none"
   d="m 198.05,258.756 c 0.174,0.173 0.4,0.4 0.672,0.671 l 0.705,-0.705 c -0.271,-0.272 -0.498,-0.498 -0.671,-0.672 z m 1.549,1.548 c 0.21,0.211 0.435,0.435 0.672,0.672 l 0.705,-0.705 c -0.237,-0.237 -0.461,-0.462 -0.672,-0.672 z m 1.548,1.549 c 0.217,0.217 0.442,0.441 0.672,0.672 l 0.706,-0.706 c -0.231,-0.23 -0.455,-0.455 -0.672,-0.672 z m 1.549,1.548 c 0.22,0.22 0.444,0.444 0.672,0.672 l 0.705,-0.705 c -0.228,-0.228 -0.452,-0.452 -0.672,-0.672 z m 1.549,1.549 c 0.221,0.222 0.445,0.446 0.671,0.672 l 0.706,-0.706 c -0.226,-0.226 -0.45,-0.45 -0.672,-0.671 z m 1.548,1.549 c 0.223,0.222 0.447,0.446 0.672,0.671 l 0.705,-0.705 c -0.225,-0.225 -0.449,-0.449 -0.671,-0.672 z m 1.549,1.548 c 0.224,0.224 0.448,0.448 0.672,0.672 l 0.705,-0.705 c -0.224,-0.224 -0.448,-0.448 -0.672,-0.672 z m 1.548,1.549 c 0.225,0.225 0.449,0.449 0.672,0.671 l 0.705,-0.705 c -0.222,-0.223 -0.446,-0.447 -0.671,-0.672 z m 1.549,1.548 c 0.226,0.226 0.45,0.45 0.672,0.672 l 0.705,-0.705 c -0.222,-0.222 -0.446,-0.446 -0.672,-0.672 z m 1.548,1.549 c 0.228,0.228 0.452,0.452 0.672,0.672 l 0.706,-0.706 c -0.22,-0.22 -0.444,-0.444 -0.672,-0.672 z m 1.549,1.548 c 0.231,0.231 0.455,0.455 0.672,0.672 l 0.705,-0.705 c -0.217,-0.217 -0.441,-0.441 -0.672,-0.672 z m 1.549,1.549 c 0.237,0.237 0.461,0.462 0.671,0.672 l 0.706,-0.706 c -0.21,-0.21 -0.435,-0.434 -0.672,-0.671 z m 1.548,1.548 c 0.277,0.277 0.504,0.504 0.672,0.672 l 0.705,-0.705 c -0.168,-0.168 -0.395,-0.395 -0.672,-0.672 z" />
            </g><g
   style="stroke-width:1.03311576;stroke-miterlimit:4;stroke-dasharray:none"
   id="g2525"
   transform="matrix(0.96883503,0.04172098,0.04172017,0.96885386,-197.19869,-252.83059)">
                <path
   id="path2523"
   style="fill:none;stroke:#1985ff;stroke-width:1.03311576;stroke-miterlimit:4;stroke-dasharray:none"
   d="m 197.45,257.45 21.1,21.1" />
            </g><rect
   x="4.4999938"
   y="4.4999938"
   width="22.000002"
   height="22"
   style="fill:none;stroke:#5c5c5c;stroke-width:1;stroke-miterlimit:4;stroke-dasharray:none"
   id="rect2527" />
</svg>
