<?xml version="1.0" encoding="UTF-8" standalone="no"?>
<!DOCTYPE svg PUBLIC "-//W3C//DTD SVG 1.1//EN" "http://www.w3.org/Graphics/SVG/1.1/DTD/svg11.dtd">
<svg width="100%" height="100%" viewBox="0 0 32 32" version="1.1" xmlns="http://www.w3.org/2000/svg" xmlns:xlink="http://www.w3.org/1999/xlink" xml:space="preserve" xmlns:serif="http://www.serif.com/" style="fill-rule:evenodd;clip-rule:evenodd;stroke-miterlimit:10;">
    <g>
        <g id="FlipEdge_24">
            <g transform="matrix(0.251429,0,0,0.251429,-0.761989,-0.761989)">
                <rect x="22.917" y="22.917" width="87.5" height="87.5" style="fill:rgb(235,235,235);"/>
            </g>
            <g transform="matrix(0.025,-1.025,1.025,-0.025,-263.9,235.9)">
                <path d="M198.05,258.756C198.224,258.929 198.45,259.156 198.722,259.427L199.427,258.722C199.156,258.45 198.929,258.224 198.756,258.05L198.05,258.756ZM199.599,260.304C199.809,260.515 200.034,260.739 200.271,260.976L200.976,260.271C200.739,260.034 200.515,259.809 200.304,259.599L199.599,260.304ZM201.147,261.853C201.364,262.07 201.589,262.294 201.819,262.525L202.525,261.819C202.294,261.589 202.07,261.364 201.853,261.147L201.147,261.853ZM202.696,263.401C202.916,263.621 203.14,263.845 203.368,264.073L204.073,263.368C203.845,263.14 203.621,262.916 203.401,262.696L202.696,263.401ZM204.245,264.95C204.466,265.172 204.69,265.396 204.916,265.622L205.622,264.916C205.396,264.69 205.172,264.466 204.95,264.245L204.245,264.95ZM205.793,266.499C206.016,266.721 206.24,266.945 206.465,267.17L207.17,266.465C206.945,266.24 206.721,266.016 206.499,265.793L205.793,266.499ZM207.342,268.047C207.566,268.271 207.79,268.495 208.014,268.719L208.719,268.014C208.495,267.79 208.271,267.566 208.047,267.342L207.342,268.047ZM208.89,269.596C209.115,269.821 209.339,270.045 209.562,270.267L210.267,269.562C210.045,269.339 209.821,269.115 209.596,268.89L208.89,269.596ZM210.439,271.144C210.665,271.37 210.889,271.594 211.111,271.816L211.816,271.111C211.594,270.889 211.37,270.665 211.144,270.439L210.439,271.144ZM211.987,272.693C212.215,272.921 212.439,273.145 212.659,273.365L213.365,272.659C213.145,272.439 212.921,272.215 212.693,271.987L211.987,272.693ZM213.536,274.241C213.767,274.472 213.991,274.696 214.208,274.913L214.913,274.208C214.696,273.991 214.472,273.767 214.241,273.536L213.536,274.241ZM215.085,275.79C215.322,276.027 215.546,276.252 215.756,276.462L216.462,275.756C216.252,275.546 216.027,275.322 215.79,275.085L215.085,275.79ZM216.633,277.338C216.91,277.615 217.137,277.842 217.305,278.01L218.01,277.305C217.842,277.137 217.615,276.91 217.338,276.633L216.633,277.338Z" style="fill:rgb(92,92,92);"/>
            </g>
            <g transform="matrix(1.045,0.045,0.045,1.045,-213.42,-273.42)">
                <path d="M197.45,257.45L218.55,278.55" style="fill:none;stroke:rgb(25,133,255);stroke-width:1.38px;"/>
            </g>
            <g transform="matrix(0.262857,0,0,0.262857,-1.5239,-1.5239)">
                <rect x="22.917" y="22.917" width="87.5" height="87.5" style="fill:none;stroke:rgb(92,92,92);stroke-width:3.8px;stroke-miterlimit:1.5;"/>
            </g>
        </g>
    </g>
</svg>
