<?xml version="1.0" encoding="UTF-8" standalone="no"?>
<!DOCTYPE svg PUBLIC "-//W3C//DTD SVG 1.1//EN" "http://www.w3.org/Graphics/SVG/1.1/DTD/svg11.dtd">
<svg width="100%" height="100%" viewBox="0 0 24 24" version="1.1" xmlns="http://www.w3.org/2000/svg" xmlns:xlink="http://www.w3.org/1999/xlink" xml:space="preserve" xmlns:serif="http://www.serif.com/" style="fill-rule:evenodd;clip-rule:evenodd;">
    <g transform="matrix(1,0,0,1,-132,-74)">
        <g id="InsertLoop_16" transform="matrix(0.75,0,0,0.75,132,74)">
            <rect x="0" y="0" width="32" height="32" style="fill:none;"/>
            <g id="insert_s">
                <g id="path3801" transform="matrix(0.952381,0,0,1,4.7619,8.66667)">
                    <path d="M16,10L23,10L19.5,14L16,10Z" style="fill:rgb(25,133,255);fill-rule:nonzero;"/>
                </g>
                <g id="path3799" transform="matrix(0.977778,0,0,0.952381,4.26667,8.19048)">
                    <path d="M12,7.5L19.5,7.5L19.5,11" style="fill:none;fill-rule:nonzero;stroke:rgb(25,133,255);stroke-width:1.38px;"/>
                </g>
            </g>
            <g id="rect3784" transform="matrix(0.969697,0,0,0.888889,4.36364,4.88889)">
                <rect x="1" y="2" width="22" height="3" style="fill:rgb(235,235,235);"/>
            </g>
            <g id="path2994" transform="matrix(0.969697,0,0,0.990909,4.36364,3.52273)">
                <path d="M1,2.5L23,2.5" style="fill:none;fill-rule:nonzero;stroke:rgb(92,92,92);stroke-width:1.36px;"/>
            </g>
            <g id="path2994-1" transform="matrix(0.969697,0,0,0.990909,4.36364,5.54091)">
                <path d="M1,4.5L23,4.5" style="fill:none;fill-rule:nonzero;stroke:rgb(92,92,92);stroke-width:1.36px;"/>
            </g>
            <g id="path2994-1-7" transform="matrix(0.990909,0,0,1.07143,3.90152,4.14286)">
                <path d="M7.5,2.2L7.5,5" style="fill:none;fill-rule:nonzero;stroke:rgb(92,92,92);stroke-width:1.29px;"/>
            </g>
            <g id="path2994-1-7-8" transform="matrix(0.990909,0,0,1.07143,4.31667,4.14286)">
                <path d="M16.5,2.2L16.5,5" style="fill:none;fill-rule:nonzero;stroke:rgb(92,92,92);stroke-width:1.29px;"/>
            </g>
        </g>
    </g>
</svg>
