<?xml version="1.0" encoding="UTF-8" standalone="no"?>
<!DOCTYPE svg PUBLIC "-//W3C//DTD SVG 1.1//EN" "http://www.w3.org/Graphics/SVG/1.1/DTD/svg11.dtd">
<svg width="100%" height="100%" viewBox="0 0 32 32" version="1.1" xmlns="http://www.w3.org/2000/svg" xmlns:xlink="http://www.w3.org/1999/xlink" xml:space="preserve" xmlns:serif="http://www.serif.com/" style="fill-rule:evenodd;clip-rule:evenodd;">
    <g transform="matrix(1,0,0,1,-96,-74)">
        <g id="InsertLoop_24" transform="matrix(1,0,0,1,96,74)">
            <rect x="0" y="0" width="32" height="32" style="fill:none;"/>
            <g id="insert_l">
                <g id="path3801" transform="matrix(1.42857,0,0,1.25,-4.85714,6.5)">
                    <path d="M16,10L23,10L19.5,14L16,10Z" style="fill:rgb(25,133,255);fill-rule:nonzero;"/>
                </g>
                <g id="path3799" transform="matrix(0.933333,0,0,1.27662,4.8,5.42532)">
                    <path d="M12,7.5L19.5,7.5L19.5,11" style="fill:none;fill-rule:nonzero;stroke:rgb(25,133,255);stroke-width:1.79px;"/>
                </g>
            </g>
            <g id="rect3784" transform="matrix(1.09091,0,0,1,2.90909,4)">
                <rect x="1" y="2" width="22" height="3" style="fill:rgb(235,235,235);"/>
            </g>
            <g transform="matrix(1.04348,0,0,1,-100.87,-71.5)">
                <path d="M100.5,77L123.5,77" style="fill:none;stroke:rgb(92,92,92);stroke-width:0.98px;stroke-miterlimit:2;"/>
            </g>
            <g transform="matrix(1.04348,0,0,1,-100.87,-67.5)">
                <path d="M100.5,77L123.5,77" style="fill:none;stroke:rgb(92,92,92);stroke-width:0.98px;stroke-miterlimit:2;"/>
            </g>
            <g transform="matrix(1,0,0,1,-89.5,-74)">
                <path d="M101,79.5L101,83.5" style="fill:none;stroke:rgb(92,92,92);stroke-width:1px;stroke-miterlimit:2;"/>
            </g>
            <g transform="matrix(1,0,0,1,-80.5,-74)">
                <path d="M101,79.5L101,83.5" style="fill:none;stroke:rgb(92,92,92);stroke-width:1px;stroke-miterlimit:2;"/>
            </g>
        </g>
    </g>
</svg>
