<?xml version="1.0" encoding="UTF-8" standalone="no"?>
<svg
   xmlns:dc="http://purl.org/dc/elements/1.1/"
   xmlns:cc="http://creativecommons.org/ns#"
   xmlns:rdf="http://www.w3.org/1999/02/22-rdf-syntax-ns#"
   xmlns:svg="http://www.w3.org/2000/svg"
   xmlns="http://www.w3.org/2000/svg"
   xmlns:sodipodi="http://sodipodi.sourceforge.net/DTD/sodipodi-0.dtd"
   xmlns:inkscape="http://www.inkscape.org/namespaces/inkscape"
   inkscape:version="1.0 (4035a4fb49, 2020-05-01)"
   sodipodi:docname="Line_24.svg"
   id="svg6032"
   style="clip-rule:evenodd;fill-rule:evenodd;stroke-linecap:round"
   xml:space="preserve"
   version="1.1"
   viewBox="0 0 32 32"
   height="32"
   width="32"><metadata
   id="metadata6038"><rdf:RDF><cc:Work
       rdf:about=""><dc:format>image/svg+xml</dc:format><dc:type
         rdf:resource="http://purl.org/dc/dcmitype/StillImage" /><dc:title></dc:title></cc:Work></rdf:RDF></metadata><defs
   id="defs6036">
        
    
            
            
        
                
                
                
                
                
                
            
                    
                
                    
                
                    
                
                    
                
                    
                
                    
                </defs><sodipodi:namedview
   inkscape:current-layer="svg6032"
   inkscape:window-maximized="1"
   inkscape:window-y="-8"
   inkscape:window-x="-8"
   inkscape:cy="20.582474"
   inkscape:cx="16.5"
   inkscape:zoom="29.393939"
   showgrid="true"
   id="namedview6034"
   inkscape:window-height="1137"
   inkscape:window-width="1920"
   inkscape:pageshadow="2"
   inkscape:pageopacity="0"
   guidetolerance="10"
   gridtolerance="10"
   objecttolerance="10"
   borderopacity="1"
   bordercolor="#666666"
   pagecolor="#ffffff"><inkscape:grid
     id="grid6601"
     type="xygrid" /></sodipodi:namedview>
    <g
   id="g6002">
                <g
   id="g5924"
   transform="matrix(0.92655,0,0,0.918327,5.24518,5.95695)">
                    <path
   id="path5922"
   style="fill:#fe0000"
   d="M 16.55,4.15 19.25,5.5 7.1,17.65 5.647,15.46 Z" />
                </g>
                <g
   id="g5928"
   transform="matrix(0.92655,0,0,0.918327,5.24518,5.95695)">
                    <path
   id="path5926"
   style="fill:#f9fafa"
   d="m 18.683,2.56 -1.76,1.76 1.204,1.204 1.76,-1.76 z" />
                </g>
                <g
   id="g5932"
   transform="matrix(0.92655,0,0,0.918327,5.24518,5.95695)">
                    <path
   id="path5930"
   style="fill:#9da161"
   d="M 6.969,16.864 0.815,21.826 7.774,17.671 Z" />
                </g>
                <g
   id="g5936"
   transform="matrix(0.92655,0,0,0.918327,5.24518,5.95695)">
                    <path
   id="path5934"
   style="fill:#a6262a"
   d="M 19.307,0.1 21.275,0.37 18.86,2.679 17.89,1.745 Z" />
                </g>
                <g
   id="g5940"
   transform="matrix(0.92655,0,0,0.918327,5.24518,5.95695)">
                    <path
   id="path5938"
   style="fill:#e6e8ae"
   d="M 3.809,19.435 7.028,16.815 5.726,15.511 1.099,21.318 Z" />
                </g>
                <g
   id="g5944"
   transform="matrix(0.92655,0,0,0.918327,5.24518,5.95695)">
                    <path
   id="path5942"
   style="fill:#4e5152"
   d="m 19.982,3.784 -1.77,1.77 0.807,0.807 1.77,-1.77 z" />
                </g>
                <g
   id="g5948"
   transform="matrix(0.92655,0,0,0.918327,5.24518,5.95695)">
                    <path
   id="path5946"
   style="fill:#d30b0b"
   d="M 5.003,14.832 16.244,3.591 17.052,4.399 5.811,15.64 Z" />
                </g>
                <g
   id="g5952"
   transform="matrix(0.92655,0,0,0.918327,5.24518,5.95695)">
                    <path
   id="path5950"
   style="fill:#b60000"
   d="M 18.241,5.588 19.05,6.397 7.809,17.637 7,16.829 Z" />
                </g>
                <g
   id="g5956"
   transform="matrix(0.92655,0,0,0.918327,5.24518,5.95695)">
                    <path
   id="path5954"
   style="fill:#e47073"
   d="M 18.727,2.634 21.121,0.24 22.336,1.455 19.942,3.848 Z" />
                </g>
                <g
   id="g5960"
   transform="matrix(0.92655,0,0,0.918327,5.24518,5.95695)">
                    <path
   id="path5958"
   style="fill:#8c9191"
   d="M 17.985,1.722 16.214,3.493 17.021,4.3 18.792,2.529 Z" />
                </g>
                <g
   id="g5964"
   transform="matrix(0.92655,0,0,0.918327,5.24518,5.95695)">
                    <path
   id="path5962"
   style="fill:#d3d881"
   d="m 0.944,21.632 4.768,-6.019 -4.768,6.019 3.963,-6.83 0.805,0.811 z" />
                </g>
                <g
   id="g5968"
   transform="matrix(0.92655,0,0,0.918327,5.24518,5.95695)">
                    <path
   id="path5966"
   style="fill:#65171a"
   d="M 22.22,1.45 22.355,2.8 20.702,4.557 19.887,3.742 Z" />
                </g>
                <g
   id="g5972"
   transform="matrix(0.92655,0,0,0.918327,5.24518,5.95695)">
                    <path
   id="path5970"
   d="M 3.986,19.587 2.787,18.346 0.944,21.503 Z" />
                </g>
                <g
   id="g5976"
   transform="matrix(0.92655,0,0,0.918327,5.24518,5.95695)">
                    <path
   id="path5974"
   style="fill:none;stroke:#000000;stroke-width:0.2px"
   d="m 5.003,14.802 2.835,2.835" />
                </g>
                <g
   id="g5980"
   transform="matrix(0.92655,0,0,0.918327,5.24518,5.95695)">
                    <path
   id="path5978"
   style="fill:none;stroke:#000000;stroke-width:0.2px"
   d="M 16.214,3.591 19.05,6.426" />
                </g>
                <g
   id="g5984"
   transform="matrix(0.92655,0,0,0.918327,5.24518,5.95695)">
                    <path
   id="path5982"
   style="fill:none;stroke:#000000;stroke-width:0.2px"
   d="M 7,16.8 18.243,5.557 19.938,3.798" />
                </g>
                <g
   id="g5988"
   transform="matrix(0.92655,0,0,0.918327,5.24518,5.95695)">
                    <path
   id="path5986"
   style="fill:none;stroke:#000000;stroke-width:0.2px"
   d="m 17.89,1.722 2.835,2.835" />
                </g>
                <g
   id="g5992"
   transform="matrix(0.92655,0,0,0.918327,5.24518,5.95695)">
                    <path
   id="path5990"
   style="fill:none;stroke:#000000;stroke-width:0.2px"
   d="M 5.793,15.568 18.762,2.594" />
                </g>
                <g
   id="g5996"
   transform="matrix(0.92655,0,0,0.918327,5.24518,5.95695)">
                    <path
   id="path5994"
   style="fill:none;stroke:#000000;stroke-width:0.5px"
   d="m 19.565,0.089 c 1.543,-0.305 2.956,1.092 2.827,2.793" />
                </g>
                <g
   id="g6000"
   transform="matrix(0.92655,0,0,0.918327,5.24518,5.95695)">
                    <path
   id="path5998"
   style="fill:none;stroke:#000000;stroke-width:0.5px"
   d="M 22.4,2.868 7.735,17.533 1,21.5 4.914,14.712 19.58,0.047" />
                </g>
            </g><rect
   id="rect6004"
   style="fill:#91c5ff"
   height="4"
   width="4"
   y="18"
   x="23" /><rect
   id="rect6008"
   style="fill:#91c5ff"
   height="4"
   width="4"
   y="23"
   x="23" /><rect
   id="rect6012"
   style="fill:#91c5ff"
   height="4"
   width="4"
   y="23"
   x="18" /><rect
   id="rect6016"
   style="fill:none;stroke:#1985ff;stroke-width:1px;stroke-linecap:butt;stroke-miterlimit:10"
   height="5"
   width="5"
   y="17.5"
   x="22.5" /><rect
   id="rect6020"
   style="fill:none;stroke:#1985ff;stroke-width:1px;stroke-linecap:butt;stroke-miterlimit:10"
   height="5"
   width="5"
   y="22.5"
   x="22.5" /><rect
   id="rect6024"
   style="fill:none;stroke:#1985ff;stroke-width:1px;stroke-linecap:butt;stroke-miterlimit:10"
   height="5"
   width="5"
   y="22.5"
   x="17.5" />
</svg>
