<?xml version="1.0" encoding="UTF-8" standalone="no"?>
<!DOCTYPE svg PUBLIC "-//W3C//DTD SVG 1.1//EN" "http://www.w3.org/Graphics/SVG/1.1/DTD/svg11.dtd">
<svg width="100%" height="100%" viewBox="0 0 24 24" version="1.1" xmlns="http://www.w3.org/2000/svg" xmlns:xlink="http://www.w3.org/1999/xlink" xml:space="preserve" xmlns:serif="http://www.serif.com/" style="fill-rule:evenodd;clip-rule:evenodd;stroke-linecap:round;">
    <g transform="matrix(0.75,0,0,0.75,0,0)">
        <g id="Line_16">
            <g>
                <g transform="matrix(0.86478,0,0,0.857105,5.96216,6.62648)">
                    <path d="M16.55,4.15L19.25,5.5L7.1,17.65L5.647,15.46L16.55,4.15Z" style="fill:rgb(254,0,0);"/>
                </g>
                <g transform="matrix(0.86478,0,0,0.857105,5.96216,6.62648)">
                    <path d="M18.683,2.56L16.923,4.32L18.127,5.524L19.887,3.764L18.683,2.56Z" style="fill:rgb(249,250,250);"/>
                </g>
                <g transform="matrix(0.86478,0,0,0.857105,5.96216,6.62648)">
                    <path d="M6.969,16.864L0.815,21.826L7.774,17.671L6.969,16.864Z" style="fill:rgb(157,161,97);"/>
                </g>
                <g transform="matrix(0.86478,0,0,0.857105,5.96216,6.62648)">
                    <path d="M19.307,0.1L21.275,0.37L18.86,2.679L17.89,1.745L19.307,0.1Z" style="fill:rgb(166,38,42);"/>
                </g>
                <g transform="matrix(0.86478,0,0,0.857105,5.96216,6.62648)">
                    <path d="M3.809,19.435L7.028,16.815L5.726,15.511L1.099,21.318L3.809,19.435Z" style="fill:rgb(230,232,174);"/>
                </g>
                <g transform="matrix(0.86478,0,0,0.857105,5.96216,6.62648)">
                    <path d="M19.982,3.784L18.212,5.554L19.019,6.361L20.789,4.591L19.982,3.784Z" style="fill:rgb(78,81,82);"/>
                </g>
                <g transform="matrix(0.86478,0,0,0.857105,5.96216,6.62648)">
                    <path d="M5.003,14.832L16.244,3.591L17.052,4.399L5.811,15.64L5.003,14.832Z" style="fill:rgb(211,11,11);"/>
                </g>
                <g transform="matrix(0.86478,0,0,0.857105,5.96216,6.62648)">
                    <path d="M18.241,5.588L19.05,6.397L7.809,17.637L7,16.829L18.241,5.588Z" style="fill:rgb(182,0,0);"/>
                </g>
                <g transform="matrix(0.86478,0,0,0.857105,5.96216,6.62648)">
                    <path d="M18.727,2.634L21.121,0.24L22.336,1.455L19.942,3.848L18.727,2.634Z" style="fill:rgb(228,112,115);"/>
                </g>
                <g transform="matrix(0.86478,0,0,0.857105,5.96216,6.62648)">
                    <path d="M17.985,1.722L16.214,3.493L17.021,4.3L18.792,2.529L17.985,1.722Z" style="fill:rgb(140,145,145);"/>
                </g>
                <g transform="matrix(0.86478,0,0,0.857105,5.96216,6.62648)">
                    <path d="M0.944,21.632L5.712,15.613L0.944,21.632L4.907,14.802L5.712,15.613L0.944,21.632Z" style="fill:rgb(211,216,129);"/>
                </g>
                <g transform="matrix(0.86478,0,0,0.857105,5.96216,6.62648)">
                    <path d="M22.22,1.45L22.355,2.8L20.702,4.557L19.887,3.742L22.22,1.45Z" style="fill:rgb(101,23,26);"/>
                </g>
                <g transform="matrix(0.86478,0,0,0.857105,5.96216,6.62648)">
                    <path d="M3.986,19.587L2.787,18.346L0.944,21.503L3.986,19.587Z"/>
                </g>
                <g transform="matrix(0.86478,0,0,0.857105,5.96216,6.62648)">
                    <path d="M5.003,14.802L7.838,17.637" style="fill:none;stroke:black;stroke-width:0.2px;"/>
                </g>
                <g transform="matrix(0.86478,0,0,0.857105,5.96216,6.62648)">
                    <path d="M16.214,3.591L19.05,6.426" style="fill:none;stroke:black;stroke-width:0.2px;"/>
                </g>
                <g transform="matrix(0.86478,0,0,0.857105,5.96216,6.62648)">
                    <path d="M7,16.8L18.243,5.557L19.938,3.798" style="fill:none;stroke:black;stroke-width:0.2px;"/>
                </g>
                <g transform="matrix(0.86478,0,0,0.857105,5.96216,6.62648)">
                    <path d="M17.89,1.722L20.725,4.557" style="fill:none;stroke:black;stroke-width:0.2px;"/>
                </g>
                <g transform="matrix(0.86478,0,0,0.857105,5.96216,6.62648)">
                    <path d="M5.793,15.568L18.762,2.594" style="fill:none;stroke:black;stroke-width:0.2px;"/>
                </g>
                <g transform="matrix(0.86478,0,0,0.857105,5.96216,6.62648)">
                    <path d="M19.565,0.089C21.108,-0.216 22.521,1.181 22.392,2.882" style="fill:none;stroke:black;stroke-width:0.5px;"/>
                </g>
                <g transform="matrix(0.86478,0,0,0.857105,5.96216,6.62648)">
                    <path d="M22.4,2.868L7.735,17.533L1,21.5L4.914,14.712L19.58,0.047" style="fill:none;stroke:black;stroke-width:0.5px;"/>
                </g>
            </g>
            <g id="bluebox_s">
                <g transform="matrix(0.666667,0,0,0.666667,9.66667,8.33333)">
                    <rect x="19.5" y="19.5" width="4" height="4" style="fill:rgb(145,197,255);"/>
                </g>
                <g transform="matrix(0.666667,0,0,0.666667,9.66667,4.33333)">
                    <rect x="19.5" y="19.5" width="4" height="4" style="fill:rgb(145,197,255);"/>
                </g>
                <g transform="matrix(0.666667,0,0,0.666667,5.66667,8.33333)">
                    <rect x="19.5" y="19.5" width="4" height="4" style="fill:rgb(145,197,255);"/>
                </g>
                <g transform="matrix(1,0,0,1,2.5,1.16667)">
                    <rect x="19.5" y="19.5" width="4" height="4" style="fill:none;stroke:rgb(25,133,255);stroke-width:1.33px;stroke-linecap:butt;"/>
                </g>
                <g transform="matrix(1,0,0,1,2.5,-2.83333)">
                    <rect x="19.5" y="19.5" width="4" height="4" style="fill:none;stroke:rgb(25,133,255);stroke-width:1.33px;stroke-linecap:butt;"/>
                </g>
                <g transform="matrix(1,0,0,1,-1.5,1.16667)">
                    <rect x="19.5" y="19.5" width="4" height="4" style="fill:none;stroke:rgb(25,133,255);stroke-width:1.33px;stroke-linecap:butt;"/>
                </g>
            </g>
        </g>
    </g>
</svg>
