<?xml version="1.0" encoding="UTF-8" standalone="no"?>
<!DOCTYPE svg PUBLIC "-//W3C//DTD SVG 1.1//EN" "http://www.w3.org/Graphics/SVG/1.1/DTD/svg11.dtd">
<svg width="100%" height="100%" viewBox="0 0 32 32" version="1.1" xmlns="http://www.w3.org/2000/svg" xmlns:xlink="http://www.w3.org/1999/xlink" xml:space="preserve" xmlns:serif="http://www.serif.com/" style="fill-rule:evenodd;clip-rule:evenodd;stroke-linejoin:round;">
    <g transform="matrix(1,0,0,1,-96,-146)">
        <g id="OffsetLoop_24" transform="matrix(1,0,0,1,96,146)">
            <rect x="0" y="0" width="32" height="32" style="fill:none;"/>
            <g id="path3799" transform="matrix(1,0,0,1,3.5,13)">
                <path d="M12.5,0L12.5,5" style="fill:none;fill-rule:nonzero;stroke:rgb(25,133,255);stroke-width:2px;"/>
            </g>
            <g id="path3801" transform="matrix(1.42857,0,0,1,-1.85714,12)">
                <path d="M9,4L16,4L12.5,8L9,4Z" style="fill:rgb(25,133,255);fill-rule:nonzero;"/>
            </g>
            <g id="rect3784" transform="matrix(1.09091,0,0,1,2.90909,21)">
                <rect x="1" y="2" width="22" height="3" style="fill:rgb(235,235,235);"/>
            </g>
            <g transform="matrix(1.04348,0,0,1,-100.87,-54.5)">
                <path d="M100.5,77L123.5,77" style="fill:none;stroke:rgb(56,138,46);stroke-width:0.98px;stroke-linejoin:miter;stroke-miterlimit:2;"/>
            </g>
            <g transform="matrix(1.04348,0,0,1,-100.87,-50.5)">
                <path d="M100.5,77L123.5,77" style="fill:none;stroke:rgb(56,138,46);stroke-width:0.98px;stroke-linejoin:miter;stroke-miterlimit:2;"/>
            </g>
            <g transform="matrix(1,0,0,1,-89.5,-57)">
                <path d="M101,79.5L101,83.5" style="fill:none;stroke:rgb(56,138,46);stroke-width:1px;stroke-linejoin:miter;stroke-miterlimit:2;"/>
            </g>
            <g transform="matrix(1,0,0,1,-80.5,-57)">
                <path d="M101,79.5L101,83.5" style="fill:none;stroke:rgb(56,138,46);stroke-width:1px;stroke-linejoin:miter;stroke-miterlimit:2;"/>
            </g>
            <g id="rect37841" serif:id="rect3784" transform="matrix(1.09091,0,0,1,2.90909,4)">
                <rect x="1" y="2" width="22" height="3" style="fill:rgb(235,235,235);"/>
            </g>
            <g transform="matrix(1.04348,0,0,1,-100.87,-71.5)">
                <path d="M100.5,77L123.5,77" style="fill:none;stroke:rgb(92,92,92);stroke-width:0.98px;stroke-linejoin:miter;stroke-miterlimit:2;"/>
            </g>
            <g transform="matrix(1.04348,0,0,1,-100.87,-67.5)">
                <path d="M100.5,77L123.5,77" style="fill:none;stroke:rgb(92,92,92);stroke-width:0.98px;stroke-linejoin:miter;stroke-miterlimit:2;"/>
            </g>
            <g transform="matrix(1,0,0,1,-89.5,-74)">
                <path d="M101,79.5L101,83.5" style="fill:none;stroke:rgb(92,92,92);stroke-width:1px;stroke-linejoin:miter;stroke-miterlimit:2;"/>
            </g>
            <g transform="matrix(1,0,0,1,-80.5,-74)">
                <path d="M101,79.5L101,83.5" style="fill:none;stroke:rgb(92,92,92);stroke-width:1px;stroke-linejoin:miter;stroke-miterlimit:2;"/>
            </g>
        </g>
    </g>
</svg>
