<?xml version="1.0" encoding="UTF-8" standalone="no"?>
<!DOCTYPE svg PUBLIC "-//W3C//DTD SVG 1.1//EN" "http://www.w3.org/Graphics/SVG/1.1/DTD/svg11.dtd">
<svg width="100%" height="100%" viewBox="0 0 24 24" version="1.1" xmlns="http://www.w3.org/2000/svg" xmlns:xlink="http://www.w3.org/1999/xlink" xml:space="preserve" xmlns:serif="http://www.serif.com/" style="fill-rule:evenodd;clip-rule:evenodd;stroke-linecap:square;stroke-miterlimit:2;">
    <g transform="matrix(0.75,0,0,0.75,0,0)">
        <g id="SandboxToQuads_16">
            <g>
                <g transform="matrix(0.93679,0,0,0.93679,-89.3267,-201.762)">
                    <path d="M102.471,226.576L115.779,222.501L121.521,236.687L102.921,241.596L102.471,226.576Z" style="fill:rgb(197,171,133);"/>
                </g>
                <g transform="matrix(0.93679,0,0,0.93679,-89.3267,-201.762)">
                    <path d="M102.471,226.576L115.779,222.501L121.521,236.687L102.921,241.596L102.471,226.576Z" style="fill:none;stroke:rgb(92,92,92);stroke-width:0.85px;"/>
                </g>
                <g transform="matrix(0.93679,0,0,0.93679,-89.3267,-201.762)">
                    <path d="M106.59,225.328L109.116,239.954" style="fill:none;stroke:rgb(92,92,92);stroke-width:0.8px;stroke-linecap:butt;stroke-miterlimit:1.5;"/>
                </g>
                <g transform="matrix(0.93679,0,0,0.93679,-89.3267,-201.762)">
                    <path d="M110.92,223.988L115.412,238.301" style="fill:none;stroke:rgb(92,92,92);stroke-width:0.8px;stroke-linecap:butt;stroke-miterlimit:1.5;"/>
                </g>
                <g transform="matrix(0.93679,0,0,0.93679,-89.3267,-201.762)">
                    <path d="M102.732,235.913L119.131,230.783" style="fill:none;stroke:rgb(92,92,92);stroke-width:0.8px;stroke-linecap:butt;stroke-miterlimit:1.5;"/>
                </g>
                <g transform="matrix(0.93679,0,0,0.93679,-89.3267,-201.762)">
                    <path d="M102.606,230.85L117.294,226.253" style="fill:none;stroke:rgb(92,92,92);stroke-width:0.8px;stroke-linecap:butt;stroke-miterlimit:1.5;"/>
                </g>
                <g transform="matrix(0.93679,0,0,0.93679,-89.3267,-201.762)">
                    <path d="M115.796,222.501L103.292,241.045" style="fill:none;stroke:rgb(92,92,92);stroke-width:0.8px;stroke-linecap:butt;stroke-miterlimit:1.5;"/>
                </g>
                <g transform="matrix(0.93679,0,0,0.93679,-89.3267,-201.762)">
                    <path d="M117.294,226.253L109.116,239.954" style="fill:none;stroke:rgb(92,92,92);stroke-width:0.8px;stroke-linecap:butt;stroke-miterlimit:1.5;"/>
                </g>
                <g transform="matrix(0.93679,0,0,0.93679,-89.3267,-201.762)">
                    <path d="M119.131,230.783L115.412,238.301" style="fill:none;stroke:rgb(92,92,92);stroke-width:0.8px;stroke-linecap:butt;stroke-miterlimit:1.5;"/>
                </g>
                <g transform="matrix(0.93679,0,0,0.93679,-89.3267,-201.762)">
                    <path d="M110.92,223.988L102.732,235.913" style="fill:none;stroke:rgb(92,92,92);stroke-width:0.8px;stroke-linecap:butt;stroke-miterlimit:1.5;"/>
                </g>
                <g transform="matrix(0.93679,0,0,0.93679,-89.3267,-201.762)">
                    <path d="M106.59,225.328L102.606,230.85" style="fill:none;stroke:rgb(92,92,92);stroke-width:0.8px;stroke-linecap:butt;stroke-miterlimit:1.5;"/>
                </g>
            </g>
            <g id="bluebox_s">
                <g transform="matrix(0.666667,0,0,0.666667,9.66667,8.33333)">
                    <rect x="19.5" y="19.5" width="4" height="4" style="fill:rgb(145,197,255);"/>
                </g>
                <g transform="matrix(0.666667,0,0,0.666667,9.66667,4.33333)">
                    <rect x="19.5" y="19.5" width="4" height="4" style="fill:rgb(145,197,255);"/>
                </g>
                <g transform="matrix(0.666667,0,0,0.666667,5.66667,8.33333)">
                    <rect x="19.5" y="19.5" width="4" height="4" style="fill:rgb(145,197,255);"/>
                </g>
                <g transform="matrix(1,0,0,1,2.5,1.16667)">
                    <rect x="19.5" y="19.5" width="4" height="4" style="fill:none;stroke:rgb(25,133,255);stroke-width:1.33px;stroke-linecap:butt;stroke-miterlimit:4;"/>
                </g>
                <g transform="matrix(1,0,0,1,2.5,-2.83333)">
                    <rect x="19.5" y="19.5" width="4" height="4" style="fill:none;stroke:rgb(25,133,255);stroke-width:1.33px;stroke-linecap:butt;stroke-miterlimit:4;"/>
                </g>
                <g transform="matrix(1,0,0,1,-1.5,1.16667)">
                    <rect x="19.5" y="19.5" width="4" height="4" style="fill:none;stroke:rgb(25,133,255);stroke-width:1.33px;stroke-linecap:butt;stroke-miterlimit:4;"/>
                </g>
            </g>
        </g>
    </g>
</svg>
