<?xml version="1.0" encoding="UTF-8" standalone="no"?>
<!DOCTYPE svg PUBLIC "-//W3C//DTD SVG 1.1//EN" "http://www.w3.org/Graphics/SVG/1.1/DTD/svg11.dtd">
<svg width="100%" height="100%" viewBox="0 0 32 32" version="1.1" xmlns="http://www.w3.org/2000/svg" xmlns:xlink="http://www.w3.org/1999/xlink" xml:space="preserve" xmlns:serif="http://www.serif.com/" style="fill-rule:evenodd;clip-rule:evenodd;stroke-miterlimit:2;">
    <g transform="matrix(1,0,0,1,-192,-144)">
        <g id="ShrinkLoop_24" transform="matrix(1,0,0,1,192,144)">
            <rect x="0" y="0" width="32" height="32" style="fill:none;"/>
            <g transform="matrix(1,0,0,1,-174,-181)">
                <rect x="194" y="201" width="8" height="8"/>
            </g>
            <g transform="matrix(1,0,0,1,-180,-180)">
                <rect x="201" y="203" width="6" height="2"/>
                <rect x="201" y="203" width="6" height="2" style="fill:white;"/>
            </g>
            <g id="rect3784" transform="matrix(1.09091,0,0,1,2.90909,11)">
                <rect x="1" y="2" width="22" height="3" style="fill:rgb(235,235,235);"/>
            </g>
            <g transform="matrix(1.04348,0,0,1,-100.87,-64.5)">
                <path d="M100.5,77L123.5,77" style="fill:none;stroke:rgb(56,138,46);stroke-width:0.98px;"/>
            </g>
            <g transform="matrix(1.04348,0,0,1,-100.87,-60.5)">
                <path d="M100.5,77L123.5,77" style="fill:none;stroke:rgb(56,138,46);stroke-width:0.98px;"/>
            </g>
            <g transform="matrix(1,0,0,1,-89.5,-67)">
                <path d="M101,79.5L101,83.5" style="fill:none;stroke:rgb(56,138,46);stroke-width:1px;"/>
            </g>
            <g transform="matrix(1,0,0,1,-80.5,-67)">
                <path d="M101,79.5L101,83.5" style="fill:none;stroke:rgb(56,138,46);stroke-width:1px;"/>
            </g>
        </g>
    </g>
</svg>
