<?xml version="1.0" encoding="UTF-8" standalone="no"?>
<!DOCTYPE svg PUBLIC "-//W3C//DTD SVG 1.1//EN" "http://www.w3.org/Graphics/SVG/1.1/DTD/svg11.dtd">
<svg width="100%" height="100%" viewBox="0 0 32 32" version="1.1" xmlns="http://www.w3.org/2000/svg" xmlns:xlink="http://www.w3.org/1999/xlink" xml:space="preserve" xmlns:serif="http://www.serif.com/" style="fill-rule:evenodd;clip-rule:evenodd;stroke-miterlimit:1.5;">
    <g>
        <g id="Smooth_24">
            <g transform="matrix(0.251429,0,0,0.251429,-0.761989,-0.761989)">
                <rect x="22.917" y="22.917" width="87.5" height="87.5" style="fill:rgb(235,235,235);"/>
            </g>
            <g transform="matrix(0.262857,0,0,0.262857,-1.5239,-1.5239)">
                <rect x="22.917" y="22.917" width="87.5" height="87.5" style="fill:none;stroke:rgb(92,92,92);stroke-width:3.8px;"/>
            </g>
            <g transform="matrix(0.251429,0,0,0.249143,-0.761989,-0.609607)">
                <path d="M24.918,68.676L28.9,68.676L28.9,64.658L24.918,64.658L24.918,68.676ZM32.882,68.676L36.863,68.676L36.863,64.658L32.882,64.658L32.882,68.676ZM40.845,68.676L44.827,68.676L44.827,64.658L40.845,64.658L40.845,68.676ZM48.809,68.676L52.791,68.676L52.791,64.658L48.809,64.658L48.809,68.676ZM56.773,68.676L60.755,68.676L60.755,64.658L56.773,64.658L56.773,68.676ZM64.736,68.676L68.718,68.676L68.718,64.658L64.736,64.658L64.736,68.676ZM72.7,68.676L76.682,68.676L76.682,64.658L72.7,64.658L72.7,68.676ZM80.664,68.676L84.646,68.676L84.646,64.658L80.664,64.658L80.664,68.676ZM88.628,68.676L92.609,68.676L92.609,64.658L88.628,64.658L88.628,68.676ZM96.591,68.676L100.573,68.676L100.573,64.658L96.591,64.658L96.591,68.676ZM104.555,68.676L108.537,68.676L108.537,64.658L104.555,64.658L104.555,68.676Z" style="fill:rgb(92,92,92);"/>
            </g>
            <g transform="matrix(1.25964e-17,-0.251429,0.249143,1.86457e-17,-0.609607,32.762)">
                <path d="M24.918,68.676L28.9,68.676L28.9,64.658L24.918,64.658L24.918,68.676ZM32.882,68.676L36.863,68.676L36.863,64.658L32.882,64.658L32.882,68.676ZM40.845,68.676L44.827,68.676L44.827,64.658L40.845,64.658L40.845,68.676ZM48.809,68.676L52.791,68.676L52.791,64.658L48.809,64.658L48.809,68.676ZM56.773,68.676L60.755,68.676L60.755,64.658L56.773,64.658L56.773,68.676ZM64.736,68.676L68.718,68.676L68.718,64.658L64.736,64.658L64.736,68.676ZM72.7,68.676L76.682,68.676L76.682,64.658L72.7,64.658L72.7,68.676ZM80.664,68.676L84.646,68.676L84.646,64.658L80.664,64.658L80.664,68.676ZM88.628,68.676L92.609,68.676L92.609,64.658L88.628,64.658L88.628,68.676ZM96.591,68.676L100.573,68.676L100.573,64.658L96.591,64.658L96.591,68.676ZM104.555,68.676L108.537,68.676L108.537,64.658L104.555,64.658L104.555,68.676Z" style="fill:rgb(92,92,92);"/>
            </g>
        </g>
    </g>
</svg>
