<?xml version="1.0" encoding="UTF-8" standalone="no"?>
<!DOCTYPE svg PUBLIC "-//W3C//DTD SVG 1.1//EN" "http://www.w3.org/Graphics/SVG/1.1/DTD/svg11.dtd">
<svg width="100%" height="100%" viewBox="0 0 32 32" version="1.1" xmlns="http://www.w3.org/2000/svg" xmlns:xlink="http://www.w3.org/1999/xlink" xml:space="preserve" xmlns:serif="http://www.serif.com/" style="fill-rule:evenodd;clip-rule:evenodd;stroke-miterlimit:1.5;">
    <g transform="matrix(1,0,0,1,-292,-108)">
        <g id="UV_Paste_24" transform="matrix(1,0,0,1,292,108)">
            <rect x="0" y="0" width="32" height="32" style="fill:none;"/>
            <g transform="matrix(0.95663,0,0,0.971849,-278.271,-104.949)">
                <path d="M314.929,114.986L314.093,114.162L305.312,114.162L304.476,114.986L304.476,125.687L305.312,126.51L314.093,126.51L314.929,125.687L314.929,114.986Z" style="fill:rgb(216,164,88);"/>
            </g>
            <g transform="matrix(0.95663,0,0,0.971849,-278.271,-104.949)">
                <path d="M315.452,125.9L315.452,114.772L314.309,113.648L305.096,113.648L303.953,114.772L303.953,125.9L305.096,127.024L314.309,127.024L315.452,125.9Z" style="fill:none;stroke:rgb(152,99,32);stroke-width:1.04px;"/>
            </g>
            <g transform="matrix(0.856566,0,0,0.675735,-272.598,-70.4167)">
                <rect x="336.925" y="111.607" width="4.67" height="2.96" style="fill:rgb(243,219,128);"/>
            </g>
            <g transform="matrix(1.07071,0,0,1.0136,-345.248,-108.625)">
                <rect x="336.925" y="111.607" width="4.67" height="2.96" style="fill:none;stroke:rgb(152,99,32);stroke-width:0.96px;stroke-linecap:square;"/>
            </g>
            <g>
                <g transform="matrix(0.438082,0,0,0.539532,-112.401,-14.0392)">
                    <path d="M319.348,62.163L319.348,48.376L313.502,43.629L303.37,43.629L303.37,62.163L319.348,62.163Z" style="fill:white;"/>
                </g>
                <g transform="matrix(0.438082,0,0,0.539532,-112.401,-14.0392)">
                    <path d="M319.348,62.163L319.348,48.376L313.502,43.629L303.37,43.629L303.37,62.163L319.348,62.163Z" style="fill:none;stroke:rgb(191,191,191);stroke-width:2.03px;"/>
                </g>
                <g transform="matrix(1.26308,0,0,1.40455,-372.303,-55.086)">
                    <path d="M314.156,45.627L314.156,48.119L316.927,48.119" style="fill:none;stroke:rgb(191,191,191);stroke-width:0.75px;"/>
                </g>
                <g transform="matrix(-0.0457143,-5.59107e-18,5.60568e-18,-0.0457143,27.0476,19.0476)">
                    <rect x="22.917" y="66.667" width="43.75" height="43.75" style="fill:rgb(55,55,55);"/>
                </g>
                <g transform="matrix(-0.0457143,-5.59107e-18,5.60568e-18,-0.0457143,27.0476,19.0476)">
                    <rect x="66.667" y="22.917" width="43.75" height="43.75" style="fill:rgb(55,55,55);"/>
                </g>
            </g>
            <g transform="matrix(1,0,0,1,-307.101,-122.214)">
                <path d="M312.601,130.022L314.601,135.022L316.601,130.022" style="fill:none;stroke:black;stroke-width:1px;"/>
            </g>
            <g transform="matrix(1.02771,0,0,1.00573,-300.403,-108.69)">
                <g transform="matrix(0.973038,-0,-0,0.994307,292.303,108.071)">
                    <path d="M14,26L17,24.5L14,23C14.75,23.75 14.75,25.25 14,26Z"/>
                    <path d="M6,18L7.5,15L9,18C8.25,17.25 6.75,17.25 6,18Z"/>
                    <path d="M14.6,24.5L7.5,24.5L7.5,17.4" style="fill:none;stroke:black;stroke-width:1px;"/>
                </g>
            </g>
            <g transform="matrix(1,0,0,1,-293.5,-108)">
                <path d="M313,130L313,133C313,135 316,135 316,133L316,130" style="fill:none;stroke:black;stroke-width:1px;"/>
            </g>
        </g>
    </g>
</svg>
