<?xml version="1.0" encoding="UTF-8" standalone="no"?>
<!DOCTYPE svg PUBLIC "-//W3C//DTD SVG 1.1//EN" "http://www.w3.org/Graphics/SVG/1.1/DTD/svg11.dtd">
<svg width="100%" height="100%" viewBox="0 0 24 24" version="1.1" xmlns="http://www.w3.org/2000/svg" xmlns:xlink="http://www.w3.org/1999/xlink" xml:space="preserve" xmlns:serif="http://www.serif.com/" style="fill-rule:evenodd;clip-rule:evenodd;stroke-linecap:round;stroke-linejoin:round;stroke-miterlimit:1.5;">
    <g transform="matrix(1,0,0,1,-328,-144)">
        <g id="UV_Transfer_16" transform="matrix(0.75,0,0,0.75,328,144)">
            <rect x="0" y="0" width="32" height="32" style="fill:none;"/>
            <g transform="matrix(0.761905,0,0,0.761905,2.85714,2.85714)">
                <g transform="matrix(0.14,0,0,0.14,1.79162,1.79162)">
                    <rect x="22.917" y="22.917" width="87.5" height="87.5" style="fill:rgb(235,235,235);"/>
                </g>
                <g transform="matrix(0.12,0,0,0.12,2.24996,3.99996)">
                    <rect x="22.917" y="66.667" width="43.75" height="43.75" style="fill:rgb(55,55,55);"/>
                </g>
                <g transform="matrix(0.12,0,0,0.12,3.99996,2.24996)">
                    <rect x="66.667" y="22.917" width="43.75" height="43.75" style="fill:rgb(55,55,55);"/>
                </g>
                <g transform="matrix(0.14,0,0,0.14,1.79162,1.79162)">
                    <path d="M22.917,66.667L110.417,66.667" style="fill:none;stroke:rgb(77,77,77);stroke-width:12.5px;"/>
                </g>
                <g transform="matrix(0.14,0,0,0.14,1.79162,1.79162)">
                    <path d="M66.667,22.917L66.667,110.417" style="fill:none;stroke:rgb(77,77,77);stroke-width:12.5px;"/>
                </g>
                <g transform="matrix(0.18,0,0,0.18,-0.87506,-0.87506)">
                    <path d="M110.417,22.917L22.917,22.917L22.917,110.417L110.417,110.417L110.417,22.917ZM100.695,32.639L100.695,100.695C100.695,100.695 32.639,100.695 32.639,100.695C32.639,100.695 32.639,32.639 32.639,32.639L100.695,32.639Z" style="fill:rgb(77,77,77);"/>
                </g>
            </g>
            <g transform="matrix(0.857143,0,0,0.857143,4.38095,4.38095)">
                <g transform="matrix(0.16,0,0,0.16,8.33328,8.33328)">
                    <rect x="22.917" y="22.917" width="87.5" height="87.5" style="fill:rgb(235,235,235);"/>
                </g>
                <g transform="matrix(0.106667,0,0,0.106667,11.1111,12.6666)">
                    <rect x="22.917" y="66.667" width="43.75" height="43.75" style="fill:rgb(145,197,255);"/>
                </g>
                <g transform="matrix(0.106667,0,0,0.106667,12.6666,11.1111)">
                    <rect x="66.667" y="22.917" width="43.75" height="43.75" style="fill:rgb(145,197,255);"/>
                </g>
                <g transform="matrix(0.16,0,0,0.16,8.33328,8.33328)">
                    <path d="M22.917,66.667L110.417,66.667" style="fill:none;stroke:rgb(25,133,255);stroke-width:9.72px;stroke-linecap:butt;"/>
                </g>
                <g transform="matrix(0.16,0,0,0.16,8.33328,8.33328)">
                    <path d="M66.667,22.917L66.667,110.417" style="fill:none;stroke:rgb(25,133,255);stroke-width:9.72px;stroke-linecap:butt;"/>
                </g>
                <g transform="matrix(0.16,0,0,0.16,8.33328,8.33328)">
                    <path d="M110.417,22.917L22.917,22.917L22.917,110.417L110.417,110.417L110.417,22.917ZM100.695,32.639L100.695,100.695C100.695,100.695 32.639,100.695 32.639,100.695C32.639,100.695 32.639,32.639 32.639,32.639L100.695,32.639Z" style="fill:rgb(25,133,255);"/>
                </g>
            </g>
        </g>
    </g>
</svg>
