<?xml version="1.0" encoding="UTF-8" standalone="no"?>
<!DOCTYPE svg PUBLIC "-//W3C//DTD SVG 1.1//EN" "http://www.w3.org/Graphics/SVG/1.1/DTD/svg11.dtd">
<svg width="100%" height="100%" viewBox="0 0 24 24" version="1.1" xmlns="http://www.w3.org/2000/svg" xmlns:xlink="http://www.w3.org/1999/xlink" xml:space="preserve" xmlns:serif="http://www.serif.com/" style="fill-rule:evenodd;clip-rule:evenodd;stroke-linecap:square;stroke-miterlimit:2;">
    <g transform="matrix(1,0,0,1,-328,-180)">
        <g id="UV_Unwrap_16" transform="matrix(0.75,0,0,0.75,328,180)">
            <rect x="0" y="0" width="32" height="32" style="fill:none;"/>
            <g transform="matrix(1,0,0,1,0,-2.64988)">
                <g transform="matrix(1.33333,0,0,1.33333,-432,-230.683)">
                    <path d="M340,183.013L343,181.013L343,184L340,183.013Z" style="fill:rgb(134,179,110);"/>
                    <path d="M340,183.013L343,181.013L343,184L340,183.013Z" style="fill:rgb(60,60,60);"/>
                </g>
                <g transform="matrix(1.33333,0,0,1.33333,-437.333,-240)">
                    <path d="M341,189C342,187 344,187 345.5,188.994C345.665,189.213 345.885,189.506 346.106,189.799" style="fill:none;stroke:rgb(60,60,60);stroke-width:1px;"/>
                </g>
            </g>
            <g transform="matrix(1.35145,0,0,1.33333,-447.402,-240)">
                <path d="M338.946,192L335,192L335,196L338.946,196L338.946,192ZM337.96,193L337.96,195C337.96,195 335.987,195 335.987,195C335.987,195 335.987,193 335.987,193L337.96,193Z" style="fill:rgb(25,133,255);"/>
            </g>
            <g transform="matrix(1.35145,0,0,1.33333,-443.402,-240)">
                <path d="M338.946,192L335,192L335,196L338.946,196L338.946,192ZM337.96,193L337.96,195C337.96,195 335.987,195 335.987,195C335.987,195 335.987,193 335.987,193L337.96,193Z" style="fill:rgb(25,133,255);"/>
            </g>
            <g transform="matrix(1.35145,0,0,1.33333,-443.402,-244)">
                <path d="M338.946,192L335,192L335,196L338.946,196L338.946,192ZM337.96,193L337.96,195C337.96,195 335.987,195 335.987,195C335.987,195 335.987,193 335.987,193L337.96,193Z" style="fill:rgb(25,133,255);"/>
            </g>
            <g transform="matrix(1.35145,0,0,1.33333,-443.402,-236)">
                <path d="M338.946,192L335,192L335,196L338.946,196L338.946,192ZM337.96,193L337.96,195C337.96,195 335.987,195 335.987,195C335.987,195 335.987,193 335.987,193L337.96,193Z" style="fill:rgb(25,133,255);"/>
            </g>
            <g transform="matrix(1.35145,0,0,1.33333,-439.402,-240)">
                <path d="M338.946,192L335,192L335,196L338.946,196L338.946,192ZM337.96,193L337.96,195C337.96,195 335.987,195 335.987,195C335.987,195 335.987,193 335.987,193L337.96,193Z" style="fill:rgb(25,133,255);"/>
            </g>
            <g transform="matrix(1.35145,0,0,1.33333,-435.402,-240)">
                <path d="M338.946,192L335,192L335,196L338.946,196L338.946,192ZM337.96,193L337.96,195C337.96,195 335.987,195 335.987,195C335.987,195 335.987,193 335.987,193L337.96,193Z" style="fill:rgb(25,133,255);"/>
            </g>
            <g transform="matrix(1.33333,0,0,1.33333,-437.333,-240)">
                <rect x="333" y="193" width="2" height="2" style="fill:rgb(235,235,235);"/>
            </g>
            <g transform="matrix(1.33333,0,0,1.33333,-433.333,-240)">
                <rect x="333" y="193" width="2" height="2" style="fill:rgb(235,235,235);"/>
            </g>
            <g transform="matrix(1.33333,0,0,1.33333,-429.333,-240)">
                <rect x="333" y="193" width="2" height="2" style="fill:rgb(235,235,235);"/>
            </g>
            <g transform="matrix(1.33333,0,0,1.33333,-425.333,-240)">
                <rect x="333" y="193" width="2" height="2" style="fill:rgb(235,235,235);"/>
            </g>
            <g transform="matrix(1.33333,0,0,1.33333,-433.333,-244)">
                <rect x="333" y="193" width="2" height="2" style="fill:rgb(235,235,235);"/>
            </g>
            <g transform="matrix(1.33333,0,0,1.33333,-433.333,-236)">
                <rect x="333" y="193" width="2" height="2" style="fill:rgb(235,235,235);"/>
            </g>
        </g>
    </g>
</svg>
