<?xml version="1.0" encoding="UTF-8" standalone="no"?>
<!DOCTYPE svg PUBLIC "-//W3C//DTD SVG 1.1//EN" "http://www.w3.org/Graphics/SVG/1.1/DTD/svg11.dtd">
<svg width="100%" height="100%" viewBox="0 0 32 32" version="1.1" xmlns="http://www.w3.org/2000/svg" xmlns:xlink="http://www.w3.org/1999/xlink" xml:space="preserve" xmlns:serif="http://www.serif.com/" style="fill-rule:evenodd;clip-rule:evenodd;">
    <g transform="matrix(1,0,0,1,-292,-180)">
        <g id="UV_Unwrap_24" transform="matrix(1,0,0,1,292,180)">
            <rect x="0" y="0" width="32" height="32" style="fill:none;"/>
            <g id="rect3763-7-0-1-1-3" transform="matrix(1,0,0,1,3,14)">
                <rect x="7.5" y="6.5" width="5" height="5" style="fill:rgb(235,235,235);"/>
            </g>
            <g id="rect3763-7-0-1-1-31" serif:id="rect3763-7-0-1-1-3" transform="matrix(1,0,0,1,3,9)">
                <rect x="7.5" y="6.5" width="5" height="5" style="fill:rgb(235,235,235);"/>
            </g>
            <g id="rect3763-7-0-1-1-32" serif:id="rect3763-7-0-1-1-3" transform="matrix(1,0,0,1,3,4)">
                <rect x="7.5" y="6.5" width="5" height="5" style="fill:rgb(235,235,235);"/>
            </g>
            <g id="rect3763-7-0-1-1-33" serif:id="rect3763-7-0-1-1-3" transform="matrix(1,0,0,1,-2,9)">
                <rect x="7.5" y="6.5" width="5" height="5" style="fill:rgb(235,235,235);"/>
            </g>
            <g id="rect3763-7-0-1-1-34" serif:id="rect3763-7-0-1-1-3" transform="matrix(1,0,0,1,8,9)">
                <rect x="7.5" y="6.5" width="5" height="5" style="fill:rgb(235,235,235);"/>
            </g>
            <g id="rect3763-7-0-1-1-35" serif:id="rect3763-7-0-1-1-3" transform="matrix(1,0,0,1,13,9)">
                <rect x="7.5" y="6.5" width="5" height="5" style="fill:rgb(235,235,235);"/>
            </g>
            <g id="rect3763-7-0-1-1-36" serif:id="rect3763-7-0-1-1-3" transform="matrix(1,0,0,1,3,14)">
                <rect x="7.5" y="6.5" width="5" height="5" style="fill:none;stroke:rgb(25,134,255);stroke-width:1px;"/>
            </g>
            <g id="rect3763-7-0-1-1-37" serif:id="rect3763-7-0-1-1-3" transform="matrix(1,0,0,1,3,9)">
                <rect x="7.5" y="6.5" width="5" height="5" style="fill:none;stroke:rgb(25,134,255);stroke-width:1px;"/>
            </g>
            <g id="rect3763-7-0-1-1-38" serif:id="rect3763-7-0-1-1-3" transform="matrix(1,0,0,1,3,4)">
                <rect x="7.5" y="6.5" width="5" height="5" style="fill:none;stroke:rgb(25,134,255);stroke-width:1px;"/>
            </g>
            <g id="rect3763-7-0-1-1-39" serif:id="rect3763-7-0-1-1-3" transform="matrix(1,0,0,1,-2,9)">
                <rect x="7.5" y="6.5" width="5" height="5" style="fill:none;stroke:rgb(25,134,255);stroke-width:1px;"/>
            </g>
            <g id="rect3763-7-0-1-1-310" serif:id="rect3763-7-0-1-1-3" transform="matrix(1,0,0,1,8,9)">
                <rect x="7.5" y="6.5" width="5" height="5" style="fill:none;stroke:rgb(25,134,255);stroke-width:1px;"/>
            </g>
            <g id="rect3763-7-0-1-1-311" serif:id="rect3763-7-0-1-1-3" transform="matrix(1,0,0,1,13,9)">
                <rect x="7.5" y="6.5" width="5" height="5" style="fill:none;stroke:rgb(25,134,255);stroke-width:1px;"/>
            </g>
            <g id="rect3763-1-4-0-3-69" transform="matrix(0.666667,0,0,0.666667,6.33333,17)">
                <rect x="7" y="9" width="3" height="3" style="fill:rgb(25,132,255);fill-opacity:0.78;"/>
            </g>
            <g id="rect3763-1-4-0-3-691" serif:id="rect3763-1-4-0-3-69" transform="matrix(0.666667,0,0,0.666667,6.33333,12)">
                <rect x="7" y="9" width="3" height="3" style="fill:rgb(25,132,255);fill-opacity:0.78;"/>
            </g>
            <g id="rect3763-1-4-0-3-692" serif:id="rect3763-1-4-0-3-69" transform="matrix(0.666667,0,0,0.666667,6.33333,7)">
                <rect x="7" y="9" width="3" height="3" style="fill:rgb(25,132,255);fill-opacity:0.78;"/>
            </g>
            <g id="rect3763-1-4-0-3-693" serif:id="rect3763-1-4-0-3-69" transform="matrix(0.666667,0,0,0.666667,1.33333,12)">
                <rect x="7" y="9" width="3" height="3" style="fill:rgb(25,132,255);fill-opacity:0.78;"/>
            </g>
            <g id="rect3763-1-4-0-3-694" serif:id="rect3763-1-4-0-3-69" transform="matrix(0.666667,0,0,0.666667,11.3333,12)">
                <rect x="7" y="9" width="3" height="3" style="fill:rgb(25,132,255);fill-opacity:0.78;"/>
            </g>
            <g id="rect3763-1-4-0-3-695" serif:id="rect3763-1-4-0-3-69" transform="matrix(0.666667,0,0,0.666667,16.3333,12)">
                <rect x="7" y="9" width="3" height="3" style="fill:rgb(25,132,255);fill-opacity:0.78;"/>
            </g>
            <g id="rect3763-1-4-0-3-696" serif:id="rect3763-1-4-0-3-69" transform="matrix(0.666667,0,0,0.666667,8.33333,15)">
                <rect x="7" y="9" width="3" height="3" style="fill:rgb(25,132,255);fill-opacity:0.78;"/>
            </g>
            <g id="rect3763-1-4-0-3-697" serif:id="rect3763-1-4-0-3-69" transform="matrix(0.666667,0,0,0.666667,8.33333,10)">
                <rect x="7" y="9" width="3" height="3" style="fill:rgb(25,132,255);fill-opacity:0.78;"/>
            </g>
            <g id="rect3763-1-4-0-3-698" serif:id="rect3763-1-4-0-3-69" transform="matrix(0.666667,0,0,0.666667,8.33333,5)">
                <rect x="7" y="9" width="3" height="3" style="fill:rgb(25,132,255);fill-opacity:0.78;"/>
            </g>
            <g id="rect3763-1-4-0-3-699" serif:id="rect3763-1-4-0-3-69" transform="matrix(0.666667,0,0,0.666667,3.33333,10)">
                <rect x="7" y="9" width="3" height="3" style="fill:rgb(25,132,255);fill-opacity:0.78;"/>
            </g>
            <g transform="matrix(1.5,0,0,1.39474,-486.5,-244.633)">
                <path d="M340,183.013L343,181.013L343,184L340,183.013Z" style="fill:rgb(60,60,60);"/>
            </g>
            <g transform="matrix(1.5,0,0,1.44946,-492.5,-264.772)">
                <path d="M341,189C342,187 344,187 345.5,188.994C345.665,189.213 345.885,189.506 346.106,189.799" style="fill:none;stroke:rgb(60,60,60);stroke-width:0.68px;stroke-linecap:square;stroke-miterlimit:2;"/>
            </g>
            <g id="rect3763-1-4-0-3-6910" serif:id="rect3763-1-4-0-3-69" transform="matrix(0.666667,0,0,0.666667,13.3333,10)">
                <rect x="7" y="9" width="3" height="3" style="fill:rgb(25,132,255);fill-opacity:0.78;"/>
            </g>
            <g id="rect3763-1-4-0-3-6911" serif:id="rect3763-1-4-0-3-69" transform="matrix(0.666667,0,0,0.666667,18.3333,10)">
                <rect x="7" y="9" width="3" height="3" style="fill:rgb(25,132,255);fill-opacity:0.78;"/>
            </g>
        </g>
    </g>
</svg>
