<?xml version="1.0" encoding="UTF-8" standalone="no"?>
<!DOCTYPE svg PUBLIC "-//W3C//DTD SVG 1.1//EN" "http://www.w3.org/Graphics/SVG/1.1/DTD/svg11.dtd">
<svg width="100%" height="100%" viewBox="0 0 32 32" version="1.1" xmlns="http://www.w3.org/2000/svg" xmlns:xlink="http://www.w3.org/1999/xlink" xml:space="preserve" xmlns:serif="http://www.serif.com/" style="fill-rule:evenodd;clip-rule:evenodd;stroke-miterlimit:2;">
    <g>
        <g id="WireframeToQuad_24">
            <g>
                <g transform="matrix(1.09404,0,0,1.09404,-107.007,-238.315)">
                    <path d="M102.471,226.576L115.779,222.501L121.521,236.687L102.921,241.596L102.471,226.576Z" style="fill:none;stroke:rgb(92,92,92);stroke-width:0.91px;"/>
                </g>
                <g transform="matrix(1.09404,0,0,1.09404,-107.007,-238.315)">
                    <path d="M106.59,225.328L109.116,239.954" style="fill:none;stroke:rgb(92,92,92);stroke-width:0.91px;stroke-linecap:round;stroke-linejoin:round;stroke-miterlimit:1.5;"/>
                </g>
                <g transform="matrix(1.09404,0,0,1.09404,-107.007,-238.315)">
                    <path d="M110.92,223.988L115.412,238.301" style="fill:none;stroke:rgb(92,92,92);stroke-width:0.91px;stroke-linecap:round;stroke-linejoin:round;stroke-miterlimit:1.5;"/>
                </g>
                <g transform="matrix(1.09404,0,0,1.09404,-107.007,-238.315)">
                    <path d="M102.732,235.913L119.131,230.783" style="fill:none;stroke:rgb(92,92,92);stroke-width:0.91px;stroke-linecap:round;stroke-linejoin:round;stroke-miterlimit:1.5;"/>
                </g>
                <g transform="matrix(1.09404,0,0,1.09404,-107.007,-238.315)">
                    <path d="M102.606,230.85L117.294,226.253" style="fill:none;stroke:rgb(92,92,92);stroke-width:0.91px;stroke-linecap:round;stroke-linejoin:round;stroke-miterlimit:1.5;"/>
                </g>
            </g>
            <g id="bluebox_l">
                <g transform="matrix(1,0,0,1,0,-38)">
                    <rect x="23" y="56" width="4" height="4" style="fill:rgb(145,197,255);"/>
                </g>
                <g transform="matrix(1,0,0,1,0,-38)">
                    <rect x="23" y="61" width="4" height="4" style="fill:rgb(145,197,255);"/>
                </g>
                <g transform="matrix(1,0,0,1,0,-38)">
                    <rect x="18" y="61" width="4" height="4" style="fill:rgb(145,197,255);"/>
                </g>
                <g transform="matrix(1.25,0,0,1.25,-6.25,-52.5)">
                    <rect x="23" y="56" width="4" height="4" style="fill:none;stroke:rgb(25,133,255);stroke-width:0.8px;stroke-miterlimit:10;"/>
                </g>
                <g transform="matrix(1.25,0,0,1.25,-6.25,-53.75)">
                    <rect x="23" y="61" width="4" height="4" style="fill:none;stroke:rgb(25,133,255);stroke-width:0.8px;stroke-miterlimit:10;"/>
                </g>
                <g transform="matrix(1.25,0,0,1.25,-5,-53.75)">
                    <rect x="18" y="61" width="4" height="4" style="fill:none;stroke:rgb(25,133,255);stroke-width:0.8px;stroke-miterlimit:10;"/>
                </g>
            </g>
        </g>
    </g>
</svg>
